<mxfile host="app.diagrams.net" modified="2020-10-12T02:56:47.814Z" agent="5.0 (Windows NT 10.0; Win64; x64) AppleWebKit/537.36 (KHTML, like Gecko) Chrome/85.0.4183.121 Safari/537.36" etag="H-SmneNH-bcE8HImA48T" version="13.7.9" type="github">
  <diagram id="StFA8lsnVbOKk_Zt7Lfl" name="Page-1">
    <mxGraphModel dx="1826" dy="783" grid="1" gridSize="10" guides="1" tooltips="1" connect="1" arrows="1" fold="1" page="1" pageScale="1" pageWidth="850" pageHeight="1100" math="0" shadow="0">
      <root>
        <mxCell id="0" />
        <mxCell id="1" parent="0" />
        <mxCell id="MD6QuJcOr6j_UhxexOdQ-6" style="edgeStyle=orthogonalEdgeStyle;rounded=0;orthogonalLoop=1;jettySize=auto;html=1;exitX=0.5;exitY=1;exitDx=0;exitDy=0;" edge="1" parent="1" source="MD6QuJcOr6j_UhxexOdQ-1" target="MD6QuJcOr6j_UhxexOdQ-5">
          <mxGeometry relative="1" as="geometry" />
        </mxCell>
        <mxCell id="MD6QuJcOr6j_UhxexOdQ-1" value="" style="ellipse;whiteSpace=wrap;html=1;" vertex="1" parent="1">
          <mxGeometry x="150" y="20" width="80" height="80" as="geometry" />
        </mxCell>
        <mxCell id="MD6QuJcOr6j_UhxexOdQ-2" value="start" style="text;html=1;strokeColor=none;fillColor=none;align=center;verticalAlign=middle;whiteSpace=wrap;rounded=0;" vertex="1" parent="1">
          <mxGeometry x="170" y="50" width="40" height="20" as="geometry" />
        </mxCell>
        <mxCell id="MD6QuJcOr6j_UhxexOdQ-9" style="edgeStyle=orthogonalEdgeStyle;rounded=0;orthogonalLoop=1;jettySize=auto;html=1;exitX=0.5;exitY=1;exitDx=0;exitDy=0;entryX=0.5;entryY=0;entryDx=0;entryDy=0;" edge="1" parent="1" source="MD6QuJcOr6j_UhxexOdQ-3" target="MD6QuJcOr6j_UhxexOdQ-8">
          <mxGeometry relative="1" as="geometry" />
        </mxCell>
        <mxCell id="MD6QuJcOr6j_UhxexOdQ-3" value="soal di deploy" style="rounded=1;whiteSpace=wrap;html=1;" vertex="1" parent="1">
          <mxGeometry x="130" y="220" width="120" height="60" as="geometry" />
        </mxCell>
        <mxCell id="MD6QuJcOr6j_UhxexOdQ-7" style="edgeStyle=orthogonalEdgeStyle;rounded=0;orthogonalLoop=1;jettySize=auto;html=1;exitX=0.5;exitY=1;exitDx=0;exitDy=0;" edge="1" parent="1" source="MD6QuJcOr6j_UhxexOdQ-5" target="MD6QuJcOr6j_UhxexOdQ-3">
          <mxGeometry relative="1" as="geometry" />
        </mxCell>
        <mxCell id="MD6QuJcOr6j_UhxexOdQ-5" value="buat soal&amp;nbsp;&lt;br&gt;soal&amp;nbsp;&lt;br&gt;jawaban" style="shape=parallelogram;perimeter=parallelogramPerimeter;whiteSpace=wrap;html=1;fixedSize=1;" vertex="1" parent="1">
          <mxGeometry x="130" y="130" width="120" height="60" as="geometry" />
        </mxCell>
        <mxCell id="MD6QuJcOr6j_UhxexOdQ-11" style="edgeStyle=orthogonalEdgeStyle;rounded=0;orthogonalLoop=1;jettySize=auto;html=1;exitX=0.5;exitY=1;exitDx=0;exitDy=0;entryX=0.5;entryY=0;entryDx=0;entryDy=0;" edge="1" parent="1" source="MD6QuJcOr6j_UhxexOdQ-8" target="MD6QuJcOr6j_UhxexOdQ-10">
          <mxGeometry relative="1" as="geometry" />
        </mxCell>
        <mxCell id="MD6QuJcOr6j_UhxexOdQ-8" value="input jawaban" style="shape=parallelogram;perimeter=parallelogramPerimeter;whiteSpace=wrap;html=1;fixedSize=1;" vertex="1" parent="1">
          <mxGeometry x="130" y="320" width="120" height="60" as="geometry" />
        </mxCell>
        <mxCell id="MD6QuJcOr6j_UhxexOdQ-13" style="edgeStyle=orthogonalEdgeStyle;rounded=0;orthogonalLoop=1;jettySize=auto;html=1;exitX=0.5;exitY=1;exitDx=0;exitDy=0;entryX=0.5;entryY=0;entryDx=0;entryDy=0;" edge="1" parent="1" source="MD6QuJcOr6j_UhxexOdQ-10" target="MD6QuJcOr6j_UhxexOdQ-12">
          <mxGeometry relative="1" as="geometry" />
        </mxCell>
        <mxCell id="MD6QuJcOr6j_UhxexOdQ-14" style="edgeStyle=orthogonalEdgeStyle;rounded=0;orthogonalLoop=1;jettySize=auto;html=1;exitX=1;exitY=0.5;exitDx=0;exitDy=0;" edge="1" parent="1" source="MD6QuJcOr6j_UhxexOdQ-10">
          <mxGeometry relative="1" as="geometry">
            <mxPoint x="330" y="290" as="targetPoint" />
          </mxGeometry>
        </mxCell>
        <mxCell id="MD6QuJcOr6j_UhxexOdQ-10" value="jawaban" style="rhombus;whiteSpace=wrap;html=1;" vertex="1" parent="1">
          <mxGeometry x="150" y="430" width="80" height="80" as="geometry" />
        </mxCell>
        <mxCell id="MD6QuJcOr6j_UhxexOdQ-17" style="edgeStyle=orthogonalEdgeStyle;rounded=0;orthogonalLoop=1;jettySize=auto;html=1;exitX=0.5;exitY=1;exitDx=0;exitDy=0;entryX=0.5;entryY=0;entryDx=0;entryDy=0;" edge="1" parent="1" source="MD6QuJcOr6j_UhxexOdQ-12" target="MD6QuJcOr6j_UhxexOdQ-16">
          <mxGeometry relative="1" as="geometry" />
        </mxCell>
        <mxCell id="MD6QuJcOr6j_UhxexOdQ-12" value="nilai 100" style="rounded=0;whiteSpace=wrap;html=1;" vertex="1" parent="1">
          <mxGeometry x="130" y="560" width="120" height="60" as="geometry" />
        </mxCell>
        <mxCell id="MD6QuJcOr6j_UhxexOdQ-15" style="edgeStyle=orthogonalEdgeStyle;rounded=0;orthogonalLoop=1;jettySize=auto;html=1;exitX=0.5;exitY=1;exitDx=0;exitDy=0;" edge="1" parent="1">
          <mxGeometry relative="1" as="geometry">
            <mxPoint x="200" y="290" as="sourcePoint" />
            <mxPoint x="330" y="290" as="targetPoint" />
          </mxGeometry>
        </mxCell>
        <mxCell id="MD6QuJcOr6j_UhxexOdQ-16" value="end" style="ellipse;whiteSpace=wrap;html=1;" vertex="1" parent="1">
          <mxGeometry x="130" y="660" width="120" height="80" as="geometry" />
        </mxCell>
        <mxCell id="MD6QuJcOr6j_UhxexOdQ-20" value="" style="edgeStyle=orthogonalEdgeStyle;rounded=0;orthogonalLoop=1;jettySize=auto;html=1;" edge="1" parent="1" source="MD6QuJcOr6j_UhxexOdQ-18" target="MD6QuJcOr6j_UhxexOdQ-19">
          <mxGeometry relative="1" as="geometry" />
        </mxCell>
        <mxCell id="MD6QuJcOr6j_UhxexOdQ-18" value="start" style="strokeWidth=2;html=1;shape=mxgraph.flowchart.start_1;whiteSpace=wrap;" vertex="1" parent="1">
          <mxGeometry x="425" y="30" width="100" height="60" as="geometry" />
        </mxCell>
        <mxCell id="MD6QuJcOr6j_UhxexOdQ-22" value="" style="edgeStyle=orthogonalEdgeStyle;rounded=0;orthogonalLoop=1;jettySize=auto;html=1;" edge="1" parent="1" source="MD6QuJcOr6j_UhxexOdQ-19" target="MD6QuJcOr6j_UhxexOdQ-21">
          <mxGeometry relative="1" as="geometry" />
        </mxCell>
        <mxCell id="MD6QuJcOr6j_UhxexOdQ-19" value="ppoint = 0&lt;br&gt;nilai = 0" style="verticalLabelPosition=bottom;verticalAlign=top;html=1;shape=hexagon;perimeter=hexagonPerimeter2;arcSize=6;size=0.27;" vertex="1" parent="1">
          <mxGeometry x="425" y="150" width="100" height="60" as="geometry" />
        </mxCell>
        <mxCell id="MD6QuJcOr6j_UhxexOdQ-24" value="" style="edgeStyle=orthogonalEdgeStyle;rounded=0;orthogonalLoop=1;jettySize=auto;html=1;" edge="1" parent="1" source="MD6QuJcOr6j_UhxexOdQ-21" target="MD6QuJcOr6j_UhxexOdQ-23">
          <mxGeometry relative="1" as="geometry" />
        </mxCell>
        <mxCell id="MD6QuJcOr6j_UhxexOdQ-21" value="MEMBUAT SOAL" style="rounded=1;whiteSpace=wrap;html=1;absoluteArcSize=1;arcSize=14;strokeWidth=2;" vertex="1" parent="1">
          <mxGeometry x="425" y="280" width="100" height="100" as="geometry" />
        </mxCell>
        <mxCell id="MD6QuJcOr6j_UhxexOdQ-26" value="" style="edgeStyle=orthogonalEdgeStyle;rounded=0;orthogonalLoop=1;jettySize=auto;html=1;" edge="1" parent="1" source="MD6QuJcOr6j_UhxexOdQ-23" target="MD6QuJcOr6j_UhxexOdQ-25">
          <mxGeometry relative="1" as="geometry" />
        </mxCell>
        <mxCell id="MD6QuJcOr6j_UhxexOdQ-23" value="INUT JAWAABAN" style="shape=parallelogram;html=1;strokeWidth=2;perimeter=parallelogramPerimeter;whiteSpace=wrap;rounded=1;arcSize=12;size=0.23;" vertex="1" parent="1">
          <mxGeometry x="425" y="440" width="100" height="60" as="geometry" />
        </mxCell>
        <mxCell id="MD6QuJcOr6j_UhxexOdQ-28" value="YES" style="edgeStyle=orthogonalEdgeStyle;rounded=0;orthogonalLoop=1;jettySize=auto;html=1;" edge="1" parent="1" source="MD6QuJcOr6j_UhxexOdQ-25" target="MD6QuJcOr6j_UhxexOdQ-27">
          <mxGeometry relative="1" as="geometry" />
        </mxCell>
        <mxCell id="MD6QuJcOr6j_UhxexOdQ-29" style="edgeStyle=orthogonalEdgeStyle;rounded=0;orthogonalLoop=1;jettySize=auto;html=1;entryX=1;entryY=0.5;entryDx=0;entryDy=0;" edge="1" parent="1" target="MD6QuJcOr6j_UhxexOdQ-23">
          <mxGeometry relative="1" as="geometry">
            <mxPoint x="530" y="580" as="sourcePoint" />
            <Array as="points">
              <mxPoint x="540" y="580" />
              <mxPoint x="540" y="470" />
            </Array>
          </mxGeometry>
        </mxCell>
        <mxCell id="MD6QuJcOr6j_UhxexOdQ-36" value="" style="edgeStyle=orthogonalEdgeStyle;rounded=0;orthogonalLoop=1;jettySize=auto;html=1;" edge="1" parent="1" source="MD6QuJcOr6j_UhxexOdQ-25" target="MD6QuJcOr6j_UhxexOdQ-23">
          <mxGeometry relative="1" as="geometry" />
        </mxCell>
        <mxCell id="MD6QuJcOr6j_UhxexOdQ-25" value="JAWABAN?" style="strokeWidth=2;html=1;shape=mxgraph.flowchart.decision;whiteSpace=wrap;" vertex="1" parent="1">
          <mxGeometry x="425" y="530" width="100" height="100" as="geometry" />
        </mxCell>
        <mxCell id="MD6QuJcOr6j_UhxexOdQ-32" value="" style="edgeStyle=orthogonalEdgeStyle;rounded=0;orthogonalLoop=1;jettySize=auto;html=1;" edge="1" parent="1" source="MD6QuJcOr6j_UhxexOdQ-33" target="MD6QuJcOr6j_UhxexOdQ-30">
          <mxGeometry relative="1" as="geometry" />
        </mxCell>
        <mxCell id="MD6QuJcOr6j_UhxexOdQ-35" style="edgeStyle=orthogonalEdgeStyle;rounded=0;orthogonalLoop=1;jettySize=auto;html=1;exitX=0.5;exitY=1;exitDx=0;exitDy=0;entryX=0.5;entryY=0;entryDx=0;entryDy=0;entryPerimeter=0;" edge="1" parent="1" source="MD6QuJcOr6j_UhxexOdQ-27" target="MD6QuJcOr6j_UhxexOdQ-33">
          <mxGeometry relative="1" as="geometry" />
        </mxCell>
        <mxCell id="MD6QuJcOr6j_UhxexOdQ-27" value="nilai = point&amp;nbsp; + 2" style="rounded=1;whiteSpace=wrap;html=1;absoluteArcSize=1;arcSize=14;strokeWidth=2;" vertex="1" parent="1">
          <mxGeometry x="425" y="670" width="100" height="100" as="geometry" />
        </mxCell>
        <mxCell id="MD6QuJcOr6j_UhxexOdQ-30" value="end" style="ellipse;whiteSpace=wrap;html=1;" vertex="1" parent="1">
          <mxGeometry x="415" y="920" width="120" height="80" as="geometry" />
        </mxCell>
        <mxCell id="MD6QuJcOr6j_UhxexOdQ-33" value="NILAI" style="strokeWidth=2;html=1;shape=mxgraph.flowchart.document2;whiteSpace=wrap;size=0.25;" vertex="1" parent="1">
          <mxGeometry x="425" y="810" width="100" height="60" as="geometry" />
        </mxCell>
      </root>
    </mxGraphModel>
  </diagram>
</mxfile>
